<?xml version="1.0" encoding="utf-8"?>
<!-- Generator: Adobe Illustrator 16.0.0, SVG Export Plug-In . SVG Version: 6.00 Build 0)  -->
<!DOCTYPE svg PUBLIC "-//W3C//DTD SVG 1.1//EN" "http://www.w3.org/Graphics/SVG/1.1/DTD/svg11.dtd">
<svg version="1.1" id="Layer_1" xmlns="http://www.w3.org/2000/svg" xmlns:xlink="http://www.w3.org/1999/xlink" x="0px" y="0px"
	 width="256px" height="256px" viewBox="0 0 256 256" enable-background="new 0 0 256 256" xml:space="preserve">
<path fill="none" d="M21.915,128c0,58.495,47.589,106.085,106.085,106.085c58.495,0,106.085-47.59,106.085-106.085H128V21.915
	C69.504,21.915,21.915,69.504,21.915,128z"/>
<path d="M128,234.085c-58.496,0-106.085-47.59-106.085-106.085C21.915,69.504,69.504,21.915,128,21.915v-4
	C67.299,17.915,17.915,67.299,17.915,128S67.299,238.085,128,238.085S238.085,188.701,238.085,128h-4
	C234.085,186.495,186.495,234.085,128,234.085z"/>
</svg>
